<?xml version="1.0" encoding="UTF-8" standalone="no"?>
<svg xmlns="http://www.w3.org/2000/svg"
     width="196" height="257"
     viewBox="0 0 196 257">
  <g id="elem_38" data-depth="0">
    <title>Element 38 (depth 0, color (245, 245, 245))</title>
    <desc>bbox: x=0,y=0,w=196,h=257; area=49920.0</desc>
    <path d="M 0 0 L 0 1 L 0 2 L 0 3 L 0 4 L 0 5 L 0 6 L 0 7 L 0 8 L 0 9 L 0 10 L 0 11 L 0 12 L 0 13 L 0 14 L 0 15 L 0 16 L 0 17 L 0 18 L 0 19 L 0 20 L 0 21 L 0 22 L 0 23 L 0 24 L 0 25 L 0 26 L 0 27 L 0 28 L 0 29 L 0 30 L 0 31 L 0 32 L 0 33 L 0 34 L 0 35 L 0 36 L 0 37 L 0 38 L 0 39 L 0 40 L 0 41 L 0 42 L 0 43 L 0 44 L 0 45 L 0 46 L 0 47 L 0 48 L 0 49 L 0 50 L 0 51 L 0 52 L 0 53 L 0 54 L 0 55 L 0 56 L 0 57 L 0 58 L 0 59 L 0 60 L 0 61 L 0 62 L 0 63 L 0 64 L 0 65 L 0 66 L 0 67 L 0 68 L 0 69 L 0 70 L 0 71 L 0 72 L 0 73 L 0 74 L 0 75 L 0 76 L 0 77 L 0 78 L 0 79 L 0 80 L 0 81 L 0 82 L 0 83 L 0 84 L 0 85 L 0 86 L 0 87 L 0 88 L 0 89 L 0 90 L 0 91 L 0 92 L 0 93 L 0 94 L 0 95 L 0 96 L 0 97 L 0 98 L 0 99 L 0 100 L 0 101 L 0 102 L 0 103 L 0 104 L 0 105 L 0 106 L 0 107 L 0 108 L 0 109 L 0 110 L 0 111 L 0 112 L 0 113 L 0 114 L 0 115 L 0 116 L 0 117 L 0 118 L 0 119 L 0 120 L 0 121 L 0 122 L 0 123 L 0 124 L 0 125 L 0 126 L 0 127 L 0 128 L 0 129 L 0 130 L 0 131 L 0 132 L 0 133 L 0 134 L 0 135 L 0 136 L 0 137 L 0 138 L 0 139 L 0 140 L 0 141 L 0 142 L 0 143 L 0 144 L 0 145 L 0 146 L 0 147 L 0 148 L 0 149 L 0 150 L 0 151 L 0 152 L 0 153 L 0 154 L 0 155 L 0 156 L 0 157 L 0 158 L 0 159 L 0 160 L 0 161 L 0 162 L 0 163 L 0 164 L 0 165 L 0 166 L 0 167 L 0 168 L 0 169 L 0 170 L 0 171 L 0 172 L 0 173 L 0 174 L 0 175 L 0 176 L 0 177 L 0 178 L 0 179 L 0 180 L 0 181 L 0 182 L 0 183 L 0 184 L 0 185 L 0 186 L 0 187 L 0 188 L 0 189 L 0 190 L 0 191 L 0 192 L 0 193 L 0 194 L 0 195 L 0 196 L 0 197 L 0 198 L 0 199 L 0 200 L 0 201 L 0 202 L 0 203 L 0 204 L 0 205 L 0 206 L 0 207 L 0 208 L 0 209 L 0 210 L 0 211 L 0 212 L 0 213 L 0 214 L 0 215 L 0 216 L 0 217 L 0 218 L 0 219 L 0 220 L 0 221 L 0 222 L 0 223 L 0 224 L 0 225 L 0 226 L 0 227 L 0 228 L 0 229 L 0 230 L 0 231 L 0 232 L 0 233 L 0 234 L 0 235 L 0 236 L 0 237 L 0 238 L 0 239 L 0 240 L 0 241 L 0 242 L 0 243 L 0 244 L 0 245 L 0 246 L 0 247 L 0 248 L 0 249 L 0 250 L 0 251 L 0 252 L 0 253 L 0 254 L 0 255 L 0 256 L 1 256 L 2 256 L 3 256 L 4 256 L 5 256 L 6 256 L 7 256 L 8 256 L 9 256 L 10 256 L 11 256 L 12 256 L 13 256 L 14 256 L 15 256 L 16 256 L 17 256 L 18 256 L 19 256 L 20 256 L 21 256 L 22 256 L 23 256 L 24 256 L 25 256 L 26 256 L 27 256 L 28 256 L 29 256 L 30 256 L 31 256 L 32 256 L 33 256 L 34 256 L 35 256 L 36 256 L 37 256 L 38 256 L 39 256 L 40 256 L 41 256 L 42 256 L 43 256 L 44 256 L 45 256 L 46 256 L 47 256 L 48 256 L 49 256 L 50 256 L 51 256 L 52 256 L 53 256 L 54 256 L 55 256 L 56 256 L 57 256 L 58 256 L 59 256 L 60 256 L 61 256 L 62 256 L 63 256 L 64 256 L 65 256 L 66 256 L 67 256 L 68 256 L 69 256 L 70 256 L 71 256 L 72 256 L 73 256 L 74 256 L 75 256 L 76 256 L 77 256 L 78 256 L 79 256 L 80 256 L 81 256 L 82 256 L 83 256 L 84 256 L 85 256 L 86 256 L 87 256 L 88 256 L 89 256 L 90 256 L 91 256 L 92 256 L 93 256 L 94 256 L 95 256 L 96 256 L 97 256 L 98 256 L 99 256 L 100 256 L 101 256 L 102 256 L 103 256 L 104 256 L 105 256 L 106 256 L 107 256 L 108 256 L 109 256 L 110 256 L 111 256 L 112 256 L 113 256 L 114 256 L 115 256 L 116 256 L 117 256 L 118 256 L 119 256 L 120 256 L 121 256 L 122 256 L 123 256 L 124 256 L 125 256 L 126 256 L 127 256 L 128 256 L 129 256 L 130 256 L 131 256 L 132 256 L 133 256 L 134 256 L 135 256 L 136 256 L 137 256 L 138 256 L 139 256 L 140 256 L 141 256 L 142 256 L 143 256 L 144 256 L 145 256 L 146 256 L 147 256 L 148 256 L 149 256 L 150 256 L 151 256 L 152 256 L 153 256 L 154 256 L 155 256 L 156 256 L 157 256 L 158 256 L 159 256 L 160 256 L 161 256 L 162 256 L 163 256 L 164 256 L 165 256 L 166 256 L 167 256 L 168 256 L 169 256 L 170 256 L 171 256 L 172 256 L 173 256 L 174 256 L 175 256 L 176 256 L 177 256 L 178 256 L 179 256 L 180 256 L 181 256 L 182 256 L 183 256 L 184 256 L 185 256 L 186 256 L 187 256 L 188 256 L 189 256 L 190 256 L 191 256 L 192 256 L 193 256 L 194 256 L 195 256 L 195 255 L 195 254 L 195 253 L 195 252 L 195 251 L 195 250 L 195 249 L 195 248 L 195 247 L 195 246 L 195 245 L 195 244 L 195 243 L 195 242 L 195 241 L 195 240 L 195 239 L 195 238 L 195 237 L 195 236 L 195 235 L 195 234 L 195 233 L 195 232 L 195 231 L 195 230 L 195 229 L 195 228 L 195 227 L 195 226 L 195 225 L 195 224 L 195 223 L 195 222 L 195 221 L 195 220 L 195 219 L 195 218 L 195 217 L 195 216 L 195 215 L 195 214 L 195 213 L 195 212 L 195 211 L 195 210 L 195 209 L 195 208 L 195 207 L 195 206 L 195 205 L 195 204 L 195 203 L 195 202 L 195 201 L 195 200 L 195 199 L 195 198 L 195 197 L 195 196 L 195 195 L 195 194 L 195 193 L 195 192 L 195 191 L 195 190 L 195 189 L 195 188 L 195 187 L 195 186 L 195 185 L 195 184 L 195 183 L 195 182 L 195 181 L 195 180 L 195 179 L 195 178 L 195 177 L 195 176 L 195 175 L 195 174 L 195 173 L 195 172 L 195 171 L 195 170 L 195 169 L 195 168 L 195 167 L 195 166 L 195 165 L 195 164 L 195 163 L 195 162 L 195 161 L 195 160 L 195 159 L 195 158 L 195 157 L 195 156 L 195 155 L 195 154 L 195 153 L 195 152 L 195 151 L 195 150 L 195 149 L 195 148 L 195 147 L 195 146 L 195 145 L 195 144 L 195 143 L 195 142 L 195 141 L 195 140 L 195 139 L 195 138 L 195 137 L 195 136 L 195 135 L 195 134 L 195 133 L 195 132 L 195 131 L 195 130 L 195 129 L 195 128 L 195 127 L 195 126 L 195 125 L 195 124 L 195 123 L 195 122 L 195 121 L 195 120 L 195 119 L 195 118 L 195 117 L 195 116 L 195 115 L 195 114 L 195 113 L 195 112 L 195 111 L 195 110 L 195 109 L 195 108 L 195 107 L 195 106 L 195 105 L 195 104 L 195 103 L 195 102 L 195 101 L 195 100 L 195 99 L 195 98 L 195 97 L 195 96 L 195 95 L 195 94 L 195 93 L 195 92 L 195 91 L 195 90 L 195 89 L 195 88 L 195 87 L 195 86 L 195 85 L 195 84 L 195 83 L 195 82 L 195 81 L 195 80 L 195 79 L 195 78 L 195 77 L 195 76 L 195 75 L 195 74 L 195 73 L 195 72 L 195 71 L 195 70 L 195 69 L 195 68 L 195 67 L 195 66 L 195 65 L 195 64 L 195 63 L 195 62 L 195 61 L 195 60 L 195 59 L 195 58 L 195 57 L 195 56 L 195 55 L 195 54 L 195 53 L 195 52 L 195 51 L 195 50 L 195 49 L 195 48 L 195 47 L 195 46 L 195 45 L 195 44 L 195 43 L 195 42 L 195 41 L 195 40 L 195 39 L 195 38 L 195 37 L 195 36 L 195 35 L 195 34 L 195 33 L 195 32 L 195 31 L 195 30 L 195 29 L 195 28 L 195 27 L 195 26 L 195 25 L 195 24 L 195 23 L 195 22 L 195 21 L 195 20 L 195 19 L 195 18 L 195 17 L 195 16 L 195 15 L 195 14 L 195 13 L 195 12 L 195 11 L 195 10 L 195 9 L 195 8 L 195 7 L 195 6 L 195 5 L 195 4 L 195 3 L 195 2 L 195 1 L 195 0 L 194 0 L 193 0 L 192 0 L 191 0 L 190 0 L 189 0 L 188 0 L 187 0 L 186 0 L 185 0 L 184 0 L 183 0 L 182 0 L 181 0 L 180 0 L 179 0 L 178 0 L 177 0 L 176 0 L 175 0 L 174 0 L 173 0 L 172 0 L 171 0 L 170 0 L 169 0 L 168 0 L 167 0 L 166 0 L 165 0 L 164 0 L 163 0 L 162 0 L 161 0 L 160 0 L 159 0 L 158 0 L 157 0 L 156 0 L 155 0 L 154 0 L 153 0 L 152 0 L 151 0 L 150 0 L 149 0 L 148 0 L 147 0 L 146 0 L 145 0 L 144 0 L 143 0 L 142 0 L 141 0 L 140 0 L 139 0 L 138 0 L 137 0 L 136 0 L 135 0 L 134 0 L 133 0 L 132 0 L 131 0 L 130 0 L 129 0 L 128 0 L 127 0 L 126 0 L 125 0 L 124 0 L 123 0 L 122 0 L 121 0 L 120 0 L 119 0 L 118 0 L 117 0 L 116 0 L 115 0 L 114 0 L 113 0 L 112 0 L 111 0 L 110 0 L 109 0 L 108 0 L 107 0 L 106 0 L 105 0 L 104 0 L 103 0 L 102 0 L 101 0 L 100 0 L 99 0 L 98 0 L 97 0 L 96 0 L 95 0 L 94 0 L 93 0 L 92 0 L 91 0 L 90 0 L 89 0 L 88 0 L 87 0 L 86 0 L 85 0 L 84 0 L 83 0 L 82 0 L 81 0 L 80 0 L 79 0 L 78 0 L 77 0 L 76 0 L 75 0 L 74 0 L 73 0 L 72 0 L 71 0 L 70 0 L 69 0 L 68 0 L 67 0 L 66 0 L 65 0 L 64 0 L 63 0 L 62 0 L 61 0 L 60 0 L 59 0 L 58 0 L 57 0 L 56 0 L 55 0 L 54 0 L 53 0 L 52 0 L 51 0 L 50 0 L 49 0 L 48 0 L 47 0 L 46 0 L 45 0 L 44 0 L 43 0 L 42 0 L 41 0 L 40 0 L 39 0 L 38 0 L 37 0 L 36 0 L 35 0 L 34 0 L 33 0 L 32 0 L 31 0 L 30 0 L 29 0 L 28 0 L 27 0 L 26 0 L 25 0 L 24 0 L 23 0 L 22 0 L 21 0 L 20 0 L 19 0 L 18 0 L 17 0 L 16 0 L 15 0 L 14 0 L 13 0 L 12 0 L 11 0 L 10 0 L 9 0 L 8 0 L 7 0 L 6 0 L 5 0 L 4 0 L 3 0 L 2 0 L 1 0 Z" fill="#f5f5f5" stroke="none"/>
  </g>
  <g id="elem_0" data-depth="1">
    <title>Element 0 (depth 1, color (0, 0, 0))</title>
    <desc>bbox: x=5,y=9,w=187,h=233; area=25586.0</desc>
    <path d="M 103 9 L 102 10 L 101 10 L 100 10 L 99 10 L 98 10 L 97 10 L 96 11 L 95 11 L 94 11 L 93 11 L 92 12 L 91 12 L 90 12 L 89 13 L 88 13 L 87 13 L 86 14 L 85 14 L 84 15 L 83 15 L 82 16 L 81 16 L 80 17 L 79 18 L 78 18 L 77 19 L 76 20 L 75 21 L 74 22 L 73 23 L 72 24 L 71 25 L 70 26 L 70 27 L 69 28 L 68 29 L 68 30 L 67 31 L 67 32 L 66 33 L 66 34 L 65 35 L 65 36 L 64 37 L 64 38 L 64 39 L 63 40 L 63 41 L 63 42 L 62 43 L 62 44 L 62 45 L 62 46 L 62 47 L 61 48 L 61 49 L 61 50 L 61 51 L 61 52 L 61 53 L 61 54 L 61 55 L 61 56 L 60 57 L 59 56 L 59 55 L 58 54 L 57 53 L 56 52 L 56 51 L 55 50 L 54 49 L 54 48 L 53 47 L 53 46 L 53 45 L 52 44 L 52 43 L 52 42 L 51 41 L 51 40 L 51 39 L 51 38 L 50 37 L 49 36 L 48 36 L 47 37 L 46 38 L 45 39 L 44 40 L 44 41 L 43 42 L 43 43 L 42 44 L 41 44 L 40 43 L 39 42 L 38 42 L 37 42 L 36 41 L 35 41 L 34 41 L 33 41 L 32 42 L 32 43 L 32 44 L 31 45 L 31 46 L 31 47 L 31 48 L 31 49 L 31 50 L 30 51 L 29 51 L 28 51 L 27 50 L 26 50 L 25 50 L 24 50 L 23 51 L 22 51 L 22 52 L 22 53 L 22 54 L 23 55 L 24 56 L 24 57 L 25 58 L 26 59 L 27 60 L 28 61 L 28 62 L 28 63 L 29 64 L 29 65 L 29 66 L 29 67 L 29 68 L 29 69 L 30 70 L 30 71 L 30 72 L 30 73 L 31 74 L 31 75 L 31 76 L 32 77 L 32 78 L 32 79 L 33 80 L 33 81 L 33 82 L 34 83 L 34 84 L 35 85 L 35 86 L 35 87 L 36 88 L 36 89 L 37 90 L 37 91 L 38 92 L 38 93 L 39 94 L 39 95 L 40 96 L 40 97 L 41 98 L 41 99 L 42 100 L 41 101 L 41 102 L 40 103 L 40 104 L 40 105 L 40 106 L 39 107 L 39 108 L 39 109 L 39 110 L 38 111 L 38 112 L 38 113 L 37 114 L 37 115 L 37 116 L 37 117 L 37 118 L 36 119 L 35 120 L 34 120 L 33 119 L 32 119 L 31 119 L 30 118 L 29 118 L 28 118 L 27 118 L 26 118 L 25 118 L 24 118 L 23 118 L 22 118 L 21 118 L 20 118 L 19 118 L 18 119 L 17 119 L 16 119 L 15 120 L 14 121 L 13 121 L 12 122 L 11 123 L 10 124 L 10 125 L 9 126 L 8 127 L 8 128 L 7 129 L 7 130 L 6 131 L 6 132 L 6 133 L 5 134 L 5 135 L 5 136 L 5 137 L 5 138 L 5 139 L 5 140 L 5 141 L 5 142 L 5 143 L 5 144 L 5 145 L 5 146 L 5 147 L 5 148 L 5 149 L 6 150 L 6 151 L 6 152 L 7 153 L 7 154 L 8 155 L 8 156 L 9 157 L 10 158 L 10 159 L 11 160 L 12 161 L 13 161 L 14 162 L 15 163 L 16 163 L 17 164 L 18 165 L 19 166 L 20 167 L 21 168 L 22 169 L 23 169 L 24 170 L 25 171 L 26 171 L 27 172 L 28 172 L 29 173 L 30 173 L 31 174 L 32 174 L 33 175 L 34 175 L 35 175 L 36 176 L 37 176 L 38 176 L 39 177 L 40 177 L 41 177 L 42 177 L 43 177 L 44 177 L 45 178 L 45 179 L 44 180 L 44 181 L 44 182 L 44 183 L 44 184 L 44 185 L 44 186 L 43 187 L 43 188 L 43 189 L 43 190 L 43 191 L 43 192 L 43 193 L 43 194 L 43 195 L 43 196 L 43 197 L 43 198 L 43 199 L 43 200 L 44 201 L 44 202 L 44 203 L 44 204 L 44 205 L 45 206 L 45 207 L 45 208 L 46 209 L 46 210 L 47 211 L 47 212 L 48 213 L 49 214 L 50 215 L 50 216 L 49 217 L 49 218 L 49 219 L 48 220 L 48 221 L 47 222 L 47 223 L 47 224 L 46 225 L 46 226 L 46 227 L 45 228 L 45 229 L 45 230 L 45 231 L 45 232 L 45 233 L 45 234 L 45 235 L 46 235 L 47 235 L 48 234 L 49 234 L 50 233 L 51 233 L 52 232 L 53 231 L 54 231 L 55 232 L 55 233 L 55 234 L 55 235 L 55 236 L 56 237 L 56 238 L 57 239 L 58 240 L 59 239 L 60 239 L 61 238 L 62 237 L 62 236 L 63 235 L 64 234 L 65 234 L 66 235 L 67 236 L 67 237 L 67 238 L 68 239 L 68 240 L 69 241 L 70 241 L 71 240 L 72 239 L 73 238 L 73 237 L 74 236 L 74 235 L 75 234 L 75 233 L 75 232 L 76 231 L 76 230 L 76 229 L 77 228 L 77 227 L 77 226 L 78 225 L 78 224 L 79 223 L 79 222 L 79 221 L 80 220 L 80 219 L 80 218 L 81 217 L 81 216 L 81 215 L 82 214 L 82 213 L 82 212 L 83 211 L 83 210 L 83 209 L 83 208 L 83 207 L 83 206 L 83 205 L 82 204 L 81 203 L 81 202 L 81 201 L 82 200 L 82 199 L 83 198 L 83 197 L 83 196 L 84 195 L 85 194 L 85 193 L 86 192 L 87 191 L 88 191 L 89 191 L 90 191 L 91 191 L 92 191 L 93 192 L 94 192 L 95 192 L 96 192 L 97 192 L 98 192 L 99 192 L 100 192 L 101 192 L 102 192 L 103 192 L 104 192 L 105 192 L 106 192 L 107 192 L 108 192 L 109 192 L 110 191 L 111 191 L 112 191 L 113 191 L 114 190 L 115 190 L 116 190 L 117 190 L 118 189 L 119 189 L 120 188 L 121 188 L 122 188 L 123 189 L 124 189 L 125 189 L 126 189 L 127 189 L 128 190 L 129 190 L 130 190 L 131 190 L 132 190 L 133 190 L 134 191 L 134 192 L 134 193 L 134 194 L 134 195 L 134 196 L 135 197 L 135 198 L 135 199 L 136 200 L 136 201 L 137 202 L 137 203 L 138 204 L 139 205 L 140 205 L 141 206 L 142 207 L 143 207 L 144 207 L 145 207 L 146 208 L 147 208 L 148 208 L 149 208 L 150 207 L 151 207 L 152 207 L 153 207 L 154 207 L 155 206 L 156 206 L 157 206 L 158 205 L 159 205 L 160 204 L 161 204 L 162 203 L 163 202 L 164 202 L 165 201 L 166 200 L 167 200 L 168 199 L 169 198 L 170 197 L 171 196 L 172 196 L 173 195 L 174 194 L 175 193 L 176 192 L 177 191 L 178 190 L 179 189 L 179 188 L 180 187 L 181 186 L 182 185 L 183 184 L 184 183 L 184 182 L 185 181 L 186 180 L 186 179 L 187 178 L 188 177 L 189 176 L 189 175 L 190 174 L 190 173 L 189 172 L 188 172 L 187 172 L 186 172 L 185 172 L 184 172 L 183 172 L 182 172 L 181 171 L 181 170 L 181 169 L 182 168 L 182 167 L 182 166 L 182 165 L 182 164 L 182 163 L 181 163 L 180 163 L 179 163 L 178 163 L 177 163 L 176 163 L 175 164 L 174 164 L 173 164 L 172 164 L 171 163 L 171 162 L 171 161 L 171 160 L 171 159 L 172 158 L 172 157 L 172 156 L 171 156 L 170 156 L 169 156 L 168 156 L 167 156 L 166 157 L 165 156 L 164 155 L 164 154 L 163 153 L 163 152 L 162 151 L 161 151 L 160 150 L 159 149 L 158 149 L 157 149 L 156 149 L 155 149 L 154 148 L 154 147 L 154 146 L 154 145 L 154 144 L 154 143 L 155 142 L 155 141 L 155 140 L 155 139 L 155 138 L 155 137 L 155 136 L 155 135 L 155 134 L 155 133 L 155 132 L 155 131 L 155 130 L 155 129 L 155 128 L 155 127 L 155 126 L 155 125 L 155 124 L 155 123 L 155 122 L 155 121 L 155 120 L 156 119 L 157 119 L 158 118 L 159 118 L 160 117 L 161 117 L 162 116 L 163 115 L 164 115 L 165 114 L 166 113 L 167 113 L 168 112 L 169 111 L 170 110 L 171 109 L 172 108 L 173 107 L 174 106 L 175 105 L 176 104 L 177 103 L 178 102 L 179 101 L 180 100 L 180 99 L 181 98 L 182 97 L 182 96 L 183 95 L 184 94 L 185 93 L 185 92 L 186 91 L 187 90 L 188 90 L 189 89 L 190 88 L 191 87 L 191 86 L 191 85 L 191 84 L 190 83 L 189 83 L 188 83 L 187 82 L 186 82 L 185 82 L 184 81 L 183 81 L 182 80 L 182 79 L 183 78 L 183 77 L 183 76 L 184 75 L 184 74 L 184 73 L 183 72 L 182 72 L 181 72 L 180 72 L 179 73 L 178 73 L 177 74 L 176 74 L 175 75 L 174 75 L 173 76 L 172 76 L 171 77 L 170 77 L 169 78 L 168 78 L 167 78 L 166 78 L 165 78 L 164 78 L 163 79 L 162 79 L 161 79 L 160 79 L 159 80 L 158 80 L 157 80 L 156 81 L 155 81 L 154 81 L 153 82 L 152 82 L 151 82 L 150 82 L 149 83 L 148 83 L 147 82 L 148 81 L 149 80 L 150 79 L 151 78 L 151 77 L 152 76 L 152 75 L 153 74 L 154 73 L 154 72 L 154 71 L 155 70 L 155 69 L 156 68 L 156 67 L 157 66 L 158 66 L 159 65 L 160 64 L 160 63 L 161 62 L 161 61 L 161 60 L 161 59 L 161 58 L 161 57 L 161 56 L 160 55 L 159 54 L 158 54 L 157 53 L 157 52 L 157 51 L 157 50 L 156 49 L 156 48 L 156 47 L 156 46 L 156 45 L 156 44 L 156 43 L 156 42 L 156 41 L 155 40 L 155 39 L 155 38 L 155 37 L 154 36 L 154 35 L 154 34 L 153 33 L 153 32 L 152 31 L 152 30 L 151 29 L 151 28 L 150 27 L 149 26 L 149 25 L 148 24 L 147 23 L 146 22 L 145 21 L 144 20 L 143 19 L 142 19 L 141 18 L 140 17 L 139 17 L 138 16 L 137 15 L 136 15 L 135 14 L 134 14 L 133 14 L 132 13 L 131 13 L 130 12 L 129 12 L 128 12 L 127 11 L 126 11 L 125 11 L 124 11 L 123 10 L 122 10 L 121 10 L 120 10 L 119 10 L 118 10 L 117 9 L 116 9 L 115 9 L 114 9 L 113 9 L 112 9 L 111 9 L 110 9 L 109 9 L 108 9 L 107 9 L 106 9 L 105 9 L 104 9 Z" fill="#000000" stroke="none"/>
  </g>
  <g id="elem_10" data-depth="2">
    <title>Element 10 (depth 2, color (89, 89, 199))</title>
    <desc>bbox: x=82,y=60,w=62,h=24; area=949.5</desc>
    <path d="M 82 60 L 82 61 L 82 62 L 83 63 L 83 64 L 84 65 L 84 66 L 85 67 L 86 68 L 87 69 L 88 70 L 89 71 L 90 72 L 91 73 L 92 74 L 93 75 L 94 75 L 95 76 L 96 77 L 97 77 L 98 78 L 99 78 L 100 79 L 101 79 L 102 79 L 103 80 L 104 80 L 105 80 L 106 81 L 107 81 L 108 81 L 109 82 L 110 82 L 111 82 L 112 82 L 113 82 L 114 83 L 115 83 L 116 83 L 117 83 L 118 83 L 119 83 L 120 83 L 121 83 L 122 83 L 123 83 L 124 83 L 125 83 L 126 83 L 127 83 L 128 83 L 129 83 L 130 82 L 131 82 L 132 82 L 133 81 L 134 81 L 135 81 L 136 80 L 137 80 L 138 79 L 139 79 L 140 78 L 141 77 L 142 77 L 143 76 L 143 75 L 143 74 L 143 73 L 142 72 L 142 71 L 141 70 L 141 69 L 140 68 L 139 67 L 138 66 L 137 65 L 136 64 L 135 64 L 134 64 L 133 64 L 132 64 L 131 65 L 130 65 L 129 65 L 128 66 L 127 66 L 126 66 L 125 65 L 124 65 L 123 65 L 122 64 L 121 64 L 120 63 L 119 63 L 118 62 L 117 62 L 116 62 L 115 61 L 114 61 L 113 61 L 112 61 L 111 61 L 110 61 L 109 61 L 108 61 L 107 61 L 106 61 L 105 61 L 104 61 L 103 61 L 102 61 L 101 61 L 100 61 L 99 61 L 98 61 L 97 62 L 96 62 L 95 62 L 94 62 L 93 62 L 92 62 L 91 62 L 90 62 L 89 62 L 88 62 L 87 62 L 86 61 L 85 61 L 84 61 L 83 61 Z" fill="#c75959" stroke="none"/>
  </g>
  <g id="elem_11" data-depth="2">
    <title>Element 11 (depth 2, color (89, 89, 199))</title>
    <desc>bbox: x=140,y=64,w=12,h=10; area=32.0</desc>
    <path d="M 140 64 L 141 65 L 142 66 L 143 67 L 144 68 L 144 69 L 145 70 L 145 71 L 146 72 L 146 73 L 147 72 L 148 71 L 149 70 L 150 69 L 150 68 L 151 67 L 150 67 L 149 67 L 148 66 L 147 66 L 146 66 L 145 66 L 144 66 L 143 65 L 142 65 L 141 65 Z" fill="#c75959" stroke="none"/>
  </g>
  <g id="elem_12" data-depth="2">
    <title>Element 12 (depth 2, color (89, 89, 199))</title>
    <desc>bbox: x=37,y=115,w=6,h=26; area=77.0</desc>
    <path d="M 39 115 L 39 116 L 39 117 L 38 118 L 38 119 L 38 120 L 38 121 L 38 122 L 38 123 L 37 124 L 37 125 L 37 126 L 37 127 L 37 128 L 37 129 L 37 130 L 37 131 L 37 132 L 37 133 L 38 134 L 38 135 L 39 136 L 39 137 L 40 138 L 40 139 L 41 140 L 41 139 L 41 138 L 42 137 L 42 136 L 42 135 L 42 134 L 42 133 L 42 132 L 42 131 L 42 130 L 42 129 L 42 128 L 42 127 L 41 126 L 41 125 L 41 124 L 41 123 L 41 122 L 40 121 L 40 120 L 40 119 L 40 118 L 39 117 L 39 116 Z" fill="#c75959" stroke="none"/>
  </g>
  <g id="elem_13" data-depth="2">
    <title>Element 13 (depth 2, color (89, 89, 199))</title>
    <desc>bbox: x=37,y=139,w=3,h=11; area=3.0</desc>
    <path d="M 37 139 L 37 140 L 38 141 L 38 142 L 38 143 L 38 144 L 38 145 L 39 146 L 39 147 L 39 148 L 39 149 L 39 148 L 39 147 L 39 146 L 39 145 L 39 144 L 39 143 L 38 142 L 38 141 L 37 140 Z" fill="#c75959" stroke="none"/>
  </g>
  <g id="elem_14" data-depth="2">
    <title>Element 14 (depth 2, color (115, 223, 226))</title>
    <desc>bbox: x=69,y=88,w=73,h=20; area=586.0</desc>
    <path d="M 77 88 L 77 89 L 77 90 L 76 91 L 76 92 L 75 93 L 75 94 L 74 95 L 74 96 L 73 97 L 72 98 L 72 99 L 71 100 L 70 101 L 69 102 L 70 102 L 71 102 L 72 102 L 73 102 L 74 102 L 75 102 L 76 102 L 77 102 L 78 102 L 79 102 L 80 102 L 81 102 L 82 102 L 83 102 L 84 102 L 85 102 L 86 102 L 87 102 L 88 102 L 89 102 L 90 102 L 91 102 L 92 102 L 93 102 L 94 102 L 95 102 L 96 102 L 97 102 L 98 102 L 99 102 L 100 102 L 101 102 L 102 102 L 103 102 L 104 102 L 105 102 L 106 102 L 107 102 L 108 102 L 109 103 L 110 103 L 111 103 L 112 103 L 113 103 L 114 103 L 115 103 L 116 103 L 117 103 L 118 103 L 119 103 L 120 104 L 121 104 L 122 104 L 123 104 L 124 104 L 125 104 L 126 104 L 127 104 L 128 105 L 129 105 L 130 105 L 131 105 L 132 105 L 133 105 L 134 105 L 135 105 L 136 106 L 137 106 L 138 106 L 139 106 L 140 106 L 141 107 L 140 106 L 139 105 L 139 104 L 138 103 L 138 102 L 137 101 L 137 100 L 136 99 L 136 98 L 136 97 L 136 96 L 135 95 L 135 94 L 135 93 L 134 93 L 133 93 L 132 94 L 131 94 L 130 94 L 129 95 L 128 95 L 127 95 L 126 95 L 125 96 L 124 96 L 123 96 L 122 96 L 121 96 L 120 96 L 119 96 L 118 96 L 117 96 L 116 96 L 115 96 L 114 96 L 113 96 L 112 96 L 111 96 L 110 96 L 109 96 L 108 96 L 107 96 L 106 96 L 105 96 L 104 96 L 103 95 L 102 95 L 101 95 L 100 95 L 99 95 L 98 94 L 97 94 L 96 94 L 95 94 L 94 93 L 93 93 L 92 93 L 91 93 L 90 92 L 89 92 L 88 92 L 87 91 L 86 91 L 85 91 L 84 90 L 83 90 L 82 90 L 81 89 L 80 89 L 79 88 L 78 88 Z" fill="#e2df73" stroke="none"/>
  </g>
  <g id="elem_15" data-depth="2">
    <title>Element 15 (depth 2, color (115, 223, 226))</title>
    <desc>bbox: x=64,y=105,w=51,h=30; area=1137.0</desc>
    <path d="M 65 105 L 64 106 L 65 107 L 65 108 L 66 109 L 67 110 L 68 111 L 69 112 L 69 113 L 70 114 L 71 115 L 71 116 L 72 117 L 73 118 L 74 119 L 74 120 L 75 121 L 76 122 L 76 123 L 77 124 L 78 125 L 78 126 L 79 127 L 80 128 L 80 129 L 81 130 L 82 131 L 82 132 L 83 133 L 84 134 L 85 134 L 86 134 L 87 134 L 88 134 L 89 134 L 90 134 L 91 134 L 92 134 L 93 134 L 94 134 L 95 134 L 96 134 L 97 134 L 98 134 L 99 134 L 100 134 L 101 134 L 102 134 L 103 134 L 104 134 L 105 134 L 106 134 L 107 134 L 108 134 L 109 134 L 110 134 L 111 134 L 112 134 L 113 134 L 114 134 L 114 133 L 114 132 L 114 131 L 114 130 L 114 129 L 114 128 L 114 127 L 114 126 L 114 125 L 113 124 L 113 123 L 113 122 L 113 121 L 113 120 L 113 119 L 113 118 L 113 117 L 113 116 L 113 115 L 113 114 L 113 113 L 113 112 L 113 111 L 113 110 L 112 109 L 112 108 L 112 107 L 112 106 L 111 106 L 110 106 L 109 106 L 108 106 L 107 106 L 106 105 L 105 105 L 104 105 L 103 105 L 102 105 L 101 105 L 100 105 L 99 105 L 98 105 L 97 105 L 96 105 L 95 105 L 94 105 L 93 105 L 92 105 L 91 105 L 90 105 L 89 105 L 88 105 L 87 105 L 86 105 L 85 105 L 84 105 L 83 105 L 82 105 L 81 105 L 80 105 L 79 105 L 78 105 L 77 105 L 76 105 L 75 105 L 74 105 L 73 105 L 72 105 L 71 105 L 70 105 L 69 105 L 68 105 L 67 105 L 66 105 Z" fill="#e2df73" stroke="none"/>
  </g>
  <g id="elem_16" data-depth="2">
    <title>Element 16 (depth 2, color (115, 223, 226))</title>
    <desc>bbox: x=115,y=106,w=34,h=30; area=705.5</desc>
    <path d="M 115 106 L 115 107 L 115 108 L 116 109 L 116 110 L 116 111 L 116 112 L 116 113 L 116 114 L 116 115 L 116 116 L 116 117 L 116 118 L 116 119 L 116 120 L 116 121 L 116 122 L 117 123 L 117 124 L 117 125 L 117 126 L 117 127 L 117 128 L 117 129 L 117 130 L 117 131 L 117 132 L 117 133 L 117 134 L 118 134 L 119 134 L 120 134 L 121 134 L 122 134 L 123 134 L 124 134 L 125 134 L 126 134 L 127 135 L 128 135 L 129 135 L 130 135 L 131 135 L 132 135 L 133 135 L 134 135 L 135 135 L 136 134 L 137 133 L 138 132 L 138 131 L 139 130 L 140 129 L 141 128 L 141 127 L 142 126 L 143 125 L 143 124 L 144 123 L 145 122 L 145 121 L 146 120 L 146 119 L 147 118 L 147 117 L 148 116 L 147 115 L 146 114 L 145 113 L 144 112 L 144 111 L 143 110 L 142 110 L 141 110 L 140 110 L 139 109 L 138 109 L 137 109 L 136 109 L 135 109 L 134 109 L 133 108 L 132 108 L 131 108 L 130 108 L 129 108 L 128 108 L 127 108 L 126 107 L 125 107 L 124 107 L 123 107 L 122 107 L 121 107 L 120 107 L 119 107 L 118 106 L 117 106 L 116 106 Z" fill="#e2df73" stroke="none"/>
  </g>
  <g id="elem_17" data-depth="2">
    <title>Element 17 (depth 2, color (115, 223, 226))</title>
    <desc>bbox: x=49,y=108,w=33,h=54; area=1040.5</desc>
    <path d="M 58 108 L 57 109 L 56 109 L 55 109 L 54 110 L 53 110 L 52 110 L 51 110 L 50 110 L 49 110 L 49 111 L 50 112 L 50 113 L 50 114 L 50 115 L 50 116 L 50 117 L 50 118 L 51 119 L 51 120 L 51 121 L 51 122 L 52 123 L 52 124 L 52 125 L 53 126 L 53 127 L 53 128 L 53 129 L 53 130 L 53 131 L 53 132 L 53 133 L 53 134 L 53 135 L 53 136 L 53 137 L 53 138 L 53 139 L 53 140 L 53 141 L 52 142 L 52 143 L 52 144 L 51 145 L 51 146 L 51 147 L 51 148 L 51 149 L 51 150 L 51 151 L 51 152 L 51 153 L 51 154 L 51 155 L 52 156 L 52 157 L 52 158 L 52 159 L 53 160 L 54 160 L 55 160 L 56 160 L 57 160 L 58 160 L 59 160 L 60 160 L 61 160 L 62 160 L 63 161 L 64 160 L 65 159 L 65 158 L 66 157 L 67 156 L 67 155 L 68 154 L 69 153 L 69 152 L 70 151 L 71 150 L 71 149 L 72 148 L 73 147 L 73 146 L 74 145 L 75 144 L 75 143 L 76 142 L 77 141 L 77 140 L 78 139 L 79 138 L 79 137 L 80 136 L 81 135 L 80 134 L 79 133 L 79 132 L 78 131 L 77 130 L 77 129 L 76 128 L 75 127 L 75 126 L 74 125 L 73 124 L 72 123 L 72 122 L 71 121 L 70 120 L 70 119 L 69 118 L 68 117 L 68 116 L 67 115 L 66 114 L 65 113 L 65 112 L 64 111 L 63 110 L 62 109 L 61 108 L 60 108 L 59 108 Z" fill="#e2df73" stroke="none"/>
  </g>
  <g id="elem_18" data-depth="2">
    <title>Element 18 (depth 2, color (115, 223, 226))</title>
    <desc>bbox: x=137,y=118,w=17,h=34; area=319.0</desc>
    <path d="M 150 118 L 150 119 L 149 120 L 148 121 L 148 122 L 147 123 L 147 124 L 146 125 L 145 126 L 145 127 L 144 128 L 143 129 L 142 130 L 142 131 L 141 132 L 140 133 L 139 134 L 139 135 L 138 136 L 137 137 L 138 138 L 138 139 L 139 140 L 139 141 L 139 142 L 140 143 L 140 144 L 141 145 L 141 146 L 142 147 L 142 148 L 143 149 L 143 150 L 143 151 L 144 151 L 145 150 L 146 150 L 147 150 L 148 149 L 149 149 L 150 148 L 151 148 L 152 148 L 152 147 L 152 146 L 152 145 L 152 144 L 152 143 L 152 142 L 153 141 L 153 140 L 153 139 L 153 138 L 153 137 L 153 136 L 153 135 L 153 134 L 153 133 L 153 132 L 153 131 L 153 130 L 153 129 L 153 128 L 153 127 L 153 126 L 153 125 L 153 124 L 153 123 L 153 122 L 153 121 L 152 120 L 151 119 Z" fill="#e2df73" stroke="none"/>
  </g>
  <g id="elem_19" data-depth="2">
    <title>Element 19 (depth 2, color (115, 223, 226))</title>
    <desc>bbox: x=66,y=137,w=49,h=41; area=1238.0</desc>
    <path d="M 83 137 L 82 138 L 81 139 L 81 140 L 80 141 L 79 142 L 79 143 L 78 144 L 77 145 L 77 146 L 76 147 L 75 148 L 74 149 L 74 150 L 73 151 L 72 152 L 72 153 L 71 154 L 70 155 L 70 156 L 69 157 L 68 158 L 68 159 L 67 160 L 66 161 L 66 162 L 67 162 L 68 163 L 69 163 L 70 164 L 71 165 L 72 165 L 73 166 L 74 167 L 75 168 L 76 169 L 77 170 L 78 171 L 79 172 L 80 173 L 80 174 L 81 175 L 82 176 L 83 177 L 84 176 L 85 176 L 86 175 L 87 175 L 88 174 L 89 173 L 90 173 L 91 172 L 92 172 L 93 171 L 94 170 L 95 170 L 96 169 L 97 168 L 98 168 L 99 167 L 100 166 L 101 166 L 102 165 L 103 164 L 104 164 L 105 163 L 106 162 L 107 162 L 108 161 L 109 160 L 110 160 L 111 159 L 111 158 L 111 157 L 112 156 L 112 155 L 112 154 L 112 153 L 112 152 L 113 151 L 113 150 L 113 149 L 113 148 L 113 147 L 113 146 L 113 145 L 113 144 L 113 143 L 113 142 L 113 141 L 114 140 L 114 139 L 114 138 L 114 137 L 113 137 L 112 137 L 111 137 L 110 137 L 109 137 L 108 137 L 107 137 L 106 137 L 105 137 L 104 137 L 103 137 L 102 137 L 101 137 L 100 137 L 99 137 L 98 137 L 97 137 L 96 137 L 95 137 L 94 137 L 93 137 L 92 137 L 91 137 L 90 137 L 89 137 L 88 137 L 87 137 L 86 137 L 85 137 L 84 137 Z" fill="#e2df73" stroke="none"/>
  </g>
  <g id="elem_20" data-depth="2">
    <title>Element 20 (depth 2, color (115, 223, 226))</title>
    <desc>bbox: x=114,y=137,w=28,h=36; area=581.5</desc>
    <path d="M 117 137 L 117 138 L 117 139 L 117 140 L 116 141 L 116 142 L 116 143 L 116 144 L 116 145 L 116 146 L 116 147 L 116 148 L 116 149 L 116 150 L 116 151 L 115 152 L 115 153 L 115 154 L 115 155 L 115 156 L 114 157 L 114 158 L 114 159 L 114 160 L 115 161 L 115 162 L 116 163 L 117 164 L 118 165 L 119 166 L 119 167 L 120 168 L 121 169 L 122 170 L 123 171 L 124 172 L 124 171 L 125 170 L 125 169 L 126 168 L 127 167 L 127 166 L 128 165 L 129 164 L 129 163 L 130 162 L 131 161 L 132 160 L 133 159 L 134 158 L 135 157 L 136 156 L 137 155 L 138 155 L 139 154 L 140 153 L 141 153 L 140 152 L 140 151 L 139 150 L 139 149 L 139 148 L 138 147 L 138 146 L 137 145 L 137 144 L 136 143 L 136 142 L 135 141 L 135 140 L 134 139 L 133 138 L 132 138 L 131 138 L 130 138 L 129 138 L 128 138 L 127 138 L 126 138 L 125 137 L 124 137 L 123 137 L 122 137 L 121 137 L 120 137 L 119 137 L 118 137 Z" fill="#e2df73" stroke="none"/>
  </g>
  <g id="elem_21" data-depth="2">
    <title>Element 21 (depth 2, color (115, 223, 226))</title>
    <desc>bbox: x=84,y=162,w=39,h=29; area=668.5</desc>
    <path d="M 111 162 L 110 163 L 109 164 L 108 164 L 107 165 L 106 166 L 105 166 L 104 167 L 103 168 L 102 168 L 101 169 L 100 170 L 99 170 L 98 171 L 97 172 L 96 172 L 95 173 L 94 173 L 93 174 L 92 175 L 91 175 L 90 176 L 89 177 L 88 177 L 87 178 L 86 178 L 85 179 L 84 179 L 85 180 L 85 181 L 86 182 L 86 183 L 87 184 L 87 185 L 88 186 L 88 187 L 89 188 L 90 189 L 91 189 L 92 189 L 93 189 L 94 189 L 95 190 L 96 190 L 97 190 L 98 190 L 99 190 L 100 190 L 101 190 L 102 190 L 103 190 L 104 190 L 105 190 L 106 190 L 107 190 L 108 190 L 109 190 L 110 189 L 111 189 L 112 189 L 113 189 L 114 188 L 115 188 L 116 188 L 117 187 L 118 187 L 119 187 L 120 186 L 120 185 L 120 184 L 120 183 L 121 182 L 121 181 L 121 180 L 121 179 L 122 178 L 122 177 L 122 176 L 122 175 L 121 174 L 120 173 L 119 172 L 119 171 L 118 170 L 117 169 L 116 168 L 115 167 L 115 166 L 114 165 L 113 164 L 112 163 Z" fill="#e2df73" stroke="none"/>
  </g>
  <g id="elem_22" data-depth="2">
    <title>Element 22 (depth 2, color (170, 173, 114))</title>
    <desc>bbox: x=63,y=43,w=63,h=51; area=273.5</desc>
    <path d="M 65 43 L 64 44 L 64 45 L 64 46 L 64 47 L 64 48 L 63 49 L 63 50 L 63 51 L 63 52 L 63 53 L 63 54 L 63 55 L 63 56 L 63 57 L 63 58 L 63 59 L 63 60 L 64 61 L 65 62 L 66 63 L 66 64 L 67 65 L 68 66 L 68 67 L 69 68 L 70 69 L 70 70 L 71 71 L 72 72 L 72 73 L 73 74 L 74 75 L 74 76 L 75 77 L 75 78 L 76 79 L 76 80 L 77 81 L 77 82 L 77 83 L 78 84 L 79 85 L 80 85 L 81 86 L 82 86 L 83 86 L 84 87 L 85 87 L 86 88 L 87 88 L 88 88 L 89 89 L 90 89 L 91 89 L 92 90 L 93 90 L 94 90 L 95 90 L 96 91 L 97 91 L 98 91 L 99 91 L 100 92 L 101 92 L 102 92 L 103 92 L 104 92 L 105 93 L 106 93 L 107 93 L 108 93 L 109 93 L 110 93 L 111 93 L 112 93 L 113 93 L 114 93 L 115 93 L 116 93 L 117 93 L 118 93 L 119 93 L 120 93 L 121 93 L 122 93 L 123 93 L 124 93 L 125 93 L 124 93 L 123 93 L 122 93 L 121 93 L 120 93 L 119 93 L 118 93 L 117 93 L 116 93 L 115 93 L 114 93 L 113 92 L 112 92 L 111 92 L 110 92 L 109 92 L 108 91 L 107 91 L 106 91 L 105 91 L 104 90 L 103 90 L 102 90 L 101 90 L 100 89 L 99 89 L 98 88 L 97 88 L 96 88 L 95 87 L 94 87 L 93 86 L 92 86 L 91 85 L 90 84 L 89 84 L 88 83 L 87 83 L 86 82 L 85 81 L 84 80 L 83 79 L 82 79 L 81 78 L 80 77 L 79 76 L 78 75 L 78 74 L 77 73 L 76 72 L 75 71 L 74 70 L 74 69 L 73 68 L 73 67 L 72 66 L 71 65 L 71 64 L 70 63 L 70 62 L 69 61 L 69 60 L 69 59 L 68 58 L 68 57 L 67 56 L 67 55 L 67 54 L 67 53 L 66 52 L 66 51 L 66 50 L 66 49 L 65 48 L 65 47 L 65 46 L 65 45 L 65 44 Z" fill="#72adaa" stroke="none"/>
  </g>
  <g id="elem_23" data-depth="2">
    <title>Element 23 (depth 2, color (170, 173, 114))</title>
    <desc>bbox: x=29,y=59,w=29,h=49; area=205.5</desc>
    <path d="M 29 59 L 30 60 L 30 61 L 31 62 L 31 63 L 31 64 L 31 65 L 31 66 L 31 67 L 32 68 L 32 69 L 32 70 L 32 71 L 33 72 L 33 73 L 33 74 L 34 75 L 34 76 L 34 77 L 35 78 L 35 79 L 35 80 L 36 81 L 36 82 L 36 83 L 37 84 L 37 85 L 38 86 L 38 87 L 39 88 L 39 89 L 39 90 L 40 91 L 40 92 L 41 93 L 41 94 L 42 95 L 42 96 L 43 97 L 43 98 L 44 99 L 44 100 L 45 101 L 46 102 L 46 103 L 47 104 L 47 105 L 48 106 L 49 107 L 50 107 L 51 107 L 52 107 L 53 107 L 54 107 L 55 106 L 56 106 L 57 106 L 56 105 L 55 104 L 54 103 L 53 102 L 52 101 L 51 100 L 50 99 L 49 98 L 48 97 L 48 96 L 47 95 L 46 94 L 45 93 L 45 92 L 44 91 L 43 90 L 43 89 L 42 88 L 42 87 L 41 86 L 41 85 L 40 84 L 40 83 L 39 82 L 39 81 L 38 80 L 38 79 L 38 78 L 37 77 L 37 76 L 37 75 L 36 74 L 36 73 L 36 72 L 36 71 L 36 70 L 35 69 L 35 68 L 35 67 L 35 66 L 35 65 L 35 64 L 34 63 L 34 62 L 33 61 L 32 60 L 31 60 L 30 59 Z" fill="#72adaa" stroke="none"/>
  </g>
  <g id="elem_24" data-depth="2">
    <title>Element 24 (depth 2, color (170, 173, 114))</title>
    <desc>bbox: x=151,y=88,w=37,h=30; area=80.5</desc>
    <path d="M 187 88 L 186 89 L 185 89 L 184 90 L 183 91 L 182 92 L 181 93 L 181 94 L 180 95 L 179 96 L 179 97 L 178 98 L 177 99 L 176 100 L 175 101 L 174 102 L 173 103 L 172 104 L 171 104 L 170 105 L 169 106 L 168 107 L 167 107 L 166 108 L 165 108 L 164 109 L 163 110 L 162 110 L 161 111 L 160 111 L 159 112 L 158 112 L 157 113 L 156 113 L 155 114 L 154 114 L 153 114 L 152 115 L 151 115 L 152 116 L 153 117 L 154 117 L 155 117 L 156 117 L 157 116 L 158 116 L 159 115 L 160 115 L 161 114 L 162 114 L 163 113 L 164 112 L 165 112 L 166 111 L 167 110 L 168 109 L 169 109 L 170 108 L 171 107 L 172 106 L 173 105 L 174 104 L 175 103 L 176 102 L 176 101 L 177 100 L 178 99 L 179 98 L 179 97 L 180 96 L 181 95 L 181 94 L 182 93 L 183 92 L 184 91 L 185 90 L 186 89 Z" fill="#72adaa" stroke="none"/>
  </g>
  <g id="elem_25" data-depth="2">
    <title>Element 25 (depth 2, color (170, 173, 114))</title>
    <desc>bbox: x=8,y=150,w=20,h=12; area=45.5</desc>
    <path d="M 8 150 L 8 151 L 9 152 L 9 153 L 10 154 L 10 155 L 11 156 L 12 157 L 13 158 L 14 159 L 15 160 L 16 160 L 17 161 L 18 161 L 19 161 L 20 161 L 21 160 L 22 160 L 23 160 L 24 159 L 25 159 L 26 158 L 26 157 L 27 156 L 27 155 L 27 154 L 26 155 L 25 156 L 24 156 L 23 157 L 22 157 L 21 158 L 20 158 L 19 158 L 18 158 L 17 158 L 16 158 L 15 157 L 14 157 L 13 156 L 12 155 L 11 154 L 10 153 L 9 152 L 9 151 Z" fill="#72adaa" stroke="none"/>
  </g>
  <g id="elem_26" data-depth="2">
    <title>Element 26 (depth 2, color (170, 173, 114))</title>
    <desc>bbox: x=20,y=160,w=26,h=16; area=110.0</desc>
    <path d="M 27 160 L 26 161 L 25 162 L 24 163 L 23 163 L 22 163 L 21 164 L 20 164 L 21 165 L 22 165 L 23 166 L 24 167 L 25 168 L 26 168 L 27 169 L 28 170 L 29 170 L 30 171 L 31 171 L 32 172 L 33 172 L 34 172 L 35 173 L 36 173 L 37 174 L 38 174 L 39 174 L 40 174 L 41 175 L 42 175 L 43 175 L 44 175 L 45 175 L 45 174 L 45 173 L 45 172 L 44 172 L 43 172 L 42 172 L 41 172 L 40 171 L 39 171 L 38 170 L 37 170 L 36 169 L 35 169 L 34 168 L 33 167 L 32 166 L 31 165 L 30 164 L 29 163 L 28 162 L 27 161 Z" fill="#72adaa" stroke="none"/>
  </g>
  <g id="elem_27" data-depth="2">
    <title>Element 27 (depth 2, color (170, 173, 114))</title>
    <desc>bbox: x=123,y=161,w=62,h=45; area=1222.5</desc>
    <path d="M 166 161 L 165 162 L 164 163 L 163 164 L 162 164 L 161 165 L 160 166 L 159 167 L 158 168 L 157 169 L 156 170 L 155 171 L 155 172 L 154 173 L 153 174 L 152 175 L 151 176 L 151 177 L 150 178 L 149 179 L 149 180 L 148 181 L 147 182 L 147 183 L 146 184 L 145 185 L 145 186 L 144 187 L 144 188 L 143 189 L 142 190 L 141 191 L 140 192 L 139 193 L 138 193 L 137 192 L 137 191 L 137 190 L 136 189 L 136 188 L 137 187 L 137 186 L 137 185 L 137 184 L 137 183 L 137 182 L 137 181 L 137 180 L 137 179 L 137 178 L 137 177 L 137 176 L 137 175 L 136 174 L 135 173 L 134 173 L 133 173 L 132 173 L 131 173 L 130 174 L 129 174 L 128 175 L 127 176 L 126 176 L 125 177 L 125 178 L 124 179 L 124 180 L 124 181 L 124 182 L 123 183 L 123 184 L 123 185 L 123 186 L 124 187 L 125 187 L 126 187 L 127 187 L 128 187 L 129 187 L 130 187 L 131 187 L 132 187 L 132 186 L 132 185 L 133 184 L 134 184 L 135 185 L 135 186 L 135 187 L 135 188 L 136 189 L 136 190 L 136 191 L 136 192 L 136 193 L 136 194 L 136 195 L 137 196 L 137 197 L 137 198 L 138 199 L 138 200 L 139 201 L 140 202 L 141 203 L 142 204 L 143 204 L 144 205 L 145 205 L 146 205 L 147 205 L 148 205 L 149 205 L 150 205 L 151 205 L 152 205 L 153 205 L 154 204 L 155 204 L 156 204 L 157 203 L 158 203 L 159 202 L 160 202 L 161 201 L 162 201 L 163 200 L 164 200 L 165 199 L 166 198 L 167 197 L 168 197 L 169 196 L 170 195 L 171 194 L 172 193 L 173 192 L 174 191 L 175 190 L 176 189 L 177 188 L 178 187 L 179 186 L 180 185 L 180 184 L 181 183 L 182 182 L 183 181 L 183 180 L 184 179 L 184 178 L 184 177 L 183 177 L 182 177 L 181 178 L 180 178 L 179 178 L 178 179 L 177 179 L 176 178 L 176 177 L 176 176 L 176 175 L 177 174 L 177 173 L 177 172 L 177 171 L 178 170 L 178 169 L 177 169 L 176 169 L 175 169 L 174 170 L 173 170 L 172 170 L 171 171 L 170 171 L 169 171 L 168 171 L 167 170 L 166 169 L 166 168 L 166 167 L 167 166 L 167 165 L 167 164 L 167 163 L 168 162 L 168 161 L 167 161 Z" fill="#72adaa" stroke="none"/>
  </g>
  <g id="elem_28" data-depth="2">
    <title>Element 28 (depth 2, color (170, 173, 114))</title>
    <desc>bbox: x=56,y=182,w=30,h=50; area=410.0</desc>
    <path d="M 82 182 L 81 183 L 80 184 L 80 185 L 79 186 L 78 187 L 78 188 L 77 189 L 76 190 L 76 191 L 75 192 L 75 193 L 74 194 L 73 195 L 73 196 L 72 197 L 72 198 L 71 199 L 71 200 L 70 201 L 70 202 L 69 203 L 69 204 L 68 205 L 68 206 L 67 207 L 66 208 L 65 209 L 64 210 L 63 211 L 62 212 L 61 212 L 60 213 L 59 213 L 58 214 L 57 214 L 56 215 L 57 216 L 58 217 L 59 218 L 60 218 L 61 218 L 62 218 L 63 219 L 64 219 L 65 219 L 66 219 L 67 219 L 68 219 L 69 219 L 70 218 L 71 218 L 72 218 L 73 217 L 74 217 L 75 218 L 76 219 L 76 220 L 76 221 L 76 222 L 76 223 L 76 224 L 75 225 L 75 226 L 75 227 L 75 228 L 74 229 L 74 230 L 74 231 L 74 230 L 74 229 L 75 228 L 75 227 L 75 226 L 76 225 L 76 224 L 76 223 L 77 222 L 77 221 L 77 220 L 78 219 L 78 218 L 78 217 L 79 216 L 79 215 L 79 214 L 80 213 L 80 212 L 80 211 L 81 210 L 81 209 L 81 208 L 81 207 L 80 207 L 79 208 L 78 207 L 78 206 L 78 205 L 78 204 L 79 203 L 79 202 L 79 201 L 80 200 L 80 199 L 80 198 L 81 197 L 81 196 L 82 195 L 82 194 L 83 193 L 84 192 L 84 191 L 85 190 L 85 189 L 85 188 L 85 187 L 84 186 L 84 185 L 83 184 L 82 183 Z" fill="#72adaa" stroke="none"/>
  </g>
  <g id="elem_29" data-depth="2">
    <title>Element 29 (depth 2, color (189, 216, 170))</title>
    <desc>bbox: x=66,y=11,w=94,h=81; area=4023.5</desc>
    <path d="M 108 11 L 107 12 L 106 12 L 105 12 L 104 12 L 103 12 L 102 12 L 101 12 L 100 12 L 99 12 L 98 12 L 97 13 L 96 13 L 95 13 L 94 13 L 93 14 L 92 14 L 91 14 L 90 15 L 89 15 L 88 15 L 87 16 L 86 16 L 85 17 L 84 17 L 83 18 L 82 18 L 81 19 L 80 20 L 79 20 L 78 21 L 77 22 L 76 23 L 75 24 L 74 25 L 73 26 L 72 27 L 71 28 L 71 29 L 70 30 L 70 31 L 69 32 L 68 33 L 68 34 L 68 35 L 67 36 L 67 37 L 66 38 L 66 39 L 66 40 L 66 41 L 67 42 L 67 43 L 67 44 L 67 45 L 67 46 L 67 47 L 68 48 L 68 49 L 68 50 L 68 51 L 69 52 L 69 53 L 69 54 L 69 55 L 70 56 L 70 57 L 71 58 L 71 59 L 71 60 L 72 61 L 72 62 L 73 63 L 73 64 L 74 65 L 75 66 L 75 67 L 76 68 L 76 69 L 77 70 L 78 71 L 79 72 L 80 73 L 80 74 L 81 75 L 82 76 L 83 77 L 84 77 L 85 78 L 86 79 L 87 80 L 88 81 L 89 81 L 90 82 L 91 82 L 92 83 L 93 84 L 94 84 L 95 85 L 96 85 L 97 86 L 98 86 L 99 86 L 100 87 L 101 87 L 102 88 L 103 88 L 104 88 L 105 88 L 106 89 L 107 89 L 108 89 L 109 89 L 110 90 L 111 90 L 112 90 L 113 90 L 114 90 L 115 91 L 116 91 L 117 91 L 118 91 L 119 91 L 120 91 L 121 91 L 122 91 L 123 91 L 124 91 L 125 91 L 126 91 L 127 91 L 128 91 L 129 91 L 130 91 L 131 91 L 132 90 L 133 90 L 134 90 L 135 89 L 136 89 L 137 88 L 138 87 L 139 87 L 140 86 L 141 85 L 142 85 L 143 84 L 144 83 L 145 82 L 146 81 L 147 80 L 147 79 L 148 78 L 149 77 L 149 76 L 150 75 L 151 74 L 151 73 L 152 72 L 152 71 L 153 70 L 153 69 L 152 70 L 152 71 L 151 72 L 150 73 L 149 74 L 148 75 L 147 76 L 146 77 L 145 78 L 144 78 L 143 79 L 142 80 L 141 81 L 140 81 L 139 82 L 138 82 L 137 83 L 136 83 L 135 84 L 134 84 L 133 85 L 132 85 L 131 85 L 130 85 L 129 86 L 128 86 L 127 86 L 126 86 L 125 86 L 124 86 L 123 86 L 122 86 L 121 86 L 120 86 L 119 86 L 118 86 L 117 86 L 116 86 L 115 86 L 114 86 L 113 86 L 112 85 L 111 85 L 110 85 L 109 85 L 108 85 L 107 84 L 106 84 L 105 84 L 104 84 L 103 83 L 102 83 L 101 82 L 100 82 L 99 82 L 98 81 L 97 81 L 96 80 L 95 80 L 94 79 L 93 79 L 92 78 L 91 77 L 90 76 L 89 76 L 88 75 L 87 74 L 86 73 L 85 72 L 84 71 L 83 70 L 83 69 L 82 68 L 81 67 L 81 66 L 80 65 L 80 64 L 79 63 L 79 62 L 78 61 L 78 60 L 78 59 L 77 58 L 76 57 L 76 56 L 75 55 L 75 54 L 74 53 L 74 52 L 75 51 L 76 51 L 77 51 L 78 52 L 78 53 L 79 54 L 79 55 L 80 55 L 81 56 L 82 57 L 83 57 L 84 58 L 85 58 L 86 58 L 87 58 L 88 59 L 89 59 L 90 59 L 91 59 L 92 59 L 93 59 L 94 59 L 95 59 L 96 59 L 97 59 L 98 58 L 99 58 L 100 58 L 101 58 L 102 58 L 103 58 L 104 58 L 105 58 L 106 58 L 107 58 L 108 58 L 109 58 L 110 58 L 111 58 L 112 58 L 113 58 L 114 58 L 115 58 L 116 58 L 117 59 L 118 59 L 119 59 L 120 60 L 121 60 L 122 60 L 123 61 L 124 61 L 125 62 L 126 62 L 127 63 L 128 63 L 129 62 L 130 62 L 131 61 L 132 61 L 133 61 L 134 61 L 135 61 L 136 61 L 137 61 L 138 61 L 139 61 L 140 61 L 141 61 L 142 61 L 143 62 L 144 62 L 145 62 L 146 62 L 147 63 L 148 63 L 149 63 L 150 63 L 151 64 L 152 64 L 153 64 L 154 64 L 155 64 L 156 64 L 157 64 L 158 63 L 158 62 L 159 61 L 159 60 L 159 59 L 159 58 L 158 57 L 157 56 L 156 55 L 155 54 L 155 53 L 154 52 L 154 51 L 154 50 L 154 49 L 154 48 L 154 47 L 154 46 L 154 45 L 154 44 L 153 43 L 153 42 L 153 41 L 153 40 L 153 39 L 152 38 L 152 37 L 152 36 L 151 35 L 151 34 L 150 33 L 150 32 L 149 31 L 149 30 L 148 29 L 148 28 L 147 27 L 146 26 L 145 25 L 144 24 L 143 23 L 142 22 L 141 21 L 140 20 L 139 20 L 138 19 L 137 18 L 136 18 L 135 17 L 134 17 L 133 16 L 132 16 L 131 15 L 130 15 L 129 15 L 128 14 L 127 14 L 126 14 L 125 13 L 124 13 L 123 13 L 122 13 L 121 13 L 120 12 L 119 12 L 118 12 L 117 12 L 116 12 L 115 12 L 114 12 L 113 12 L 112 11 L 111 11 L 110 11 L 109 11 Z" fill="#aad8bd" stroke="none"/>
  </g>
  <g id="elem_30" data-depth="2">
    <title>Element 30 (depth 2, color (189, 216, 170))</title>
    <desc>bbox: x=26,y=39,w=49,h=67; area=1458.5</desc>
    <path d="M 47 39 L 47 40 L 46 41 L 45 42 L 45 43 L 45 44 L 44 45 L 43 46 L 42 47 L 41 47 L 40 47 L 39 46 L 38 45 L 37 44 L 36 44 L 35 44 L 34 43 L 34 44 L 34 45 L 34 46 L 34 47 L 34 48 L 34 49 L 33 50 L 33 51 L 32 52 L 31 53 L 30 53 L 29 53 L 28 53 L 27 53 L 26 53 L 27 54 L 28 55 L 29 56 L 30 57 L 31 57 L 32 58 L 33 58 L 34 59 L 35 60 L 36 61 L 36 62 L 37 63 L 37 64 L 37 65 L 37 66 L 37 67 L 37 68 L 38 69 L 38 70 L 38 71 L 38 72 L 38 73 L 39 74 L 39 75 L 39 76 L 40 77 L 40 78 L 40 79 L 41 80 L 41 81 L 42 82 L 42 83 L 43 84 L 43 85 L 44 86 L 44 87 L 45 88 L 45 89 L 46 90 L 47 91 L 47 92 L 48 93 L 49 94 L 50 95 L 50 96 L 51 97 L 52 98 L 53 99 L 54 100 L 55 101 L 56 102 L 57 103 L 58 104 L 59 105 L 60 104 L 61 104 L 62 103 L 63 103 L 64 102 L 65 101 L 66 101 L 67 100 L 68 99 L 69 98 L 70 97 L 70 96 L 71 95 L 72 94 L 72 93 L 73 92 L 73 91 L 73 90 L 74 89 L 74 88 L 74 87 L 74 86 L 74 85 L 74 84 L 74 83 L 73 82 L 73 81 L 72 80 L 72 79 L 71 78 L 71 77 L 70 76 L 69 75 L 69 74 L 68 73 L 68 72 L 67 71 L 66 70 L 66 69 L 65 68 L 64 67 L 64 66 L 63 65 L 62 64 L 61 63 L 61 62 L 60 61 L 59 60 L 58 59 L 58 58 L 57 57 L 56 56 L 55 55 L 55 54 L 54 53 L 53 52 L 52 51 L 52 50 L 51 49 L 51 48 L 51 47 L 50 46 L 50 45 L 50 44 L 49 43 L 49 42 L 49 41 L 49 40 L 48 39 Z" fill="#aad8bd" stroke="none"/>
  </g>
  <g id="elem_31" data-depth="2">
    <title>Element 31 (depth 2, color (189, 216, 170))</title>
    <desc>bbox: x=138,y=74,w=52,h=40; area=1001.5</desc>
    <path d="M 180 74 L 179 75 L 178 75 L 177 76 L 176 77 L 175 77 L 174 78 L 173 78 L 172 79 L 171 79 L 170 80 L 169 80 L 168 80 L 167 80 L 166 80 L 165 81 L 164 81 L 163 81 L 162 81 L 161 81 L 160 82 L 159 82 L 158 82 L 157 83 L 156 83 L 155 83 L 154 84 L 153 84 L 152 84 L 151 84 L 150 85 L 149 85 L 148 85 L 147 86 L 146 86 L 145 86 L 144 87 L 143 88 L 142 88 L 141 89 L 140 90 L 139 91 L 138 91 L 138 92 L 138 93 L 139 94 L 139 95 L 139 96 L 139 97 L 140 98 L 140 99 L 141 100 L 141 101 L 142 102 L 142 103 L 143 104 L 143 105 L 144 106 L 145 107 L 146 108 L 146 109 L 147 110 L 148 111 L 149 112 L 150 113 L 151 113 L 152 113 L 153 112 L 154 112 L 155 112 L 156 111 L 157 111 L 158 110 L 159 110 L 160 109 L 161 109 L 162 108 L 163 108 L 164 107 L 165 106 L 166 106 L 167 105 L 168 105 L 169 104 L 170 103 L 171 102 L 172 102 L 173 101 L 174 100 L 175 99 L 176 98 L 177 97 L 177 96 L 178 95 L 179 94 L 179 93 L 180 92 L 181 91 L 182 90 L 183 89 L 184 88 L 185 87 L 186 87 L 187 86 L 188 86 L 189 86 L 188 85 L 187 85 L 186 85 L 185 84 L 184 84 L 183 84 L 182 83 L 181 83 L 180 82 L 179 81 L 179 80 L 180 79 L 180 78 L 181 77 L 181 76 L 181 75 L 181 74 Z" fill="#aad8bd" stroke="none"/>
  </g>
  <g id="elem_32" data-depth="2">
    <title>Element 32 (depth 2, color (189, 216, 170))</title>
    <desc>bbox: x=42,y=104,w=7,h=21; area=66.5</desc>
    <path d="M 42 104 L 42 105 L 42 106 L 42 107 L 42 108 L 42 109 L 42 110 L 42 111 L 42 112 L 42 113 L 42 114 L 42 115 L 43 116 L 43 117 L 43 118 L 43 119 L 43 120 L 44 121 L 44 122 L 44 123 L 44 124 L 45 123 L 46 123 L 47 123 L 48 122 L 48 121 L 47 120 L 47 119 L 47 118 L 47 117 L 47 116 L 46 115 L 46 114 L 46 113 L 46 112 L 46 111 L 46 110 L 46 109 L 45 108 L 44 107 L 44 106 L 43 105 L 43 104 Z" fill="#aad8bd" stroke="none"/>
  </g>
  <g id="elem_33" data-depth="2">
    <title>Element 33 (depth 2, color (189, 216, 170))</title>
    <desc>bbox: x=7,y=120,w=40,h=51; area=803.0</desc>
    <path d="M 20 120 L 19 121 L 18 121 L 17 121 L 16 122 L 15 122 L 14 123 L 13 124 L 12 125 L 11 126 L 11 127 L 10 128 L 10 129 L 9 130 L 9 131 L 8 132 L 8 133 L 8 134 L 7 135 L 7 136 L 7 137 L 7 138 L 7 139 L 7 140 L 7 141 L 7 142 L 7 143 L 7 144 L 7 145 L 8 146 L 9 147 L 9 148 L 10 149 L 11 150 L 11 151 L 12 152 L 13 153 L 14 154 L 15 155 L 16 155 L 17 156 L 18 156 L 19 156 L 20 156 L 21 156 L 22 155 L 23 155 L 24 154 L 25 154 L 26 153 L 27 152 L 28 151 L 28 150 L 28 149 L 28 148 L 28 147 L 28 146 L 28 145 L 27 144 L 27 143 L 27 142 L 26 141 L 25 140 L 24 139 L 23 139 L 22 138 L 21 138 L 20 138 L 19 138 L 18 138 L 17 138 L 16 138 L 16 139 L 15 140 L 15 141 L 15 142 L 15 143 L 15 144 L 15 145 L 15 146 L 15 147 L 16 148 L 17 149 L 18 149 L 19 149 L 20 150 L 20 151 L 19 152 L 18 153 L 17 153 L 16 153 L 15 152 L 14 151 L 13 150 L 12 149 L 12 148 L 12 147 L 11 146 L 11 145 L 11 144 L 11 143 L 11 142 L 12 141 L 12 140 L 12 139 L 13 138 L 13 137 L 14 136 L 15 135 L 16 134 L 17 133 L 18 132 L 19 132 L 20 132 L 21 132 L 22 133 L 23 133 L 24 133 L 25 134 L 26 135 L 27 136 L 28 137 L 29 138 L 29 139 L 30 140 L 30 141 L 31 142 L 31 143 L 31 144 L 31 145 L 31 146 L 31 147 L 31 148 L 31 149 L 31 150 L 31 151 L 31 152 L 31 153 L 31 154 L 30 155 L 30 156 L 30 157 L 29 158 L 29 159 L 29 160 L 30 161 L 31 162 L 32 163 L 33 164 L 34 165 L 35 166 L 36 167 L 37 167 L 38 168 L 39 168 L 40 169 L 41 169 L 42 170 L 43 170 L 44 170 L 45 170 L 46 170 L 46 169 L 45 168 L 44 167 L 44 166 L 43 165 L 42 164 L 42 163 L 41 162 L 41 161 L 40 160 L 40 159 L 39 158 L 39 157 L 39 156 L 38 155 L 38 154 L 37 153 L 37 152 L 37 151 L 36 150 L 36 149 L 36 148 L 35 147 L 35 146 L 35 145 L 35 144 L 35 143 L 35 142 L 34 141 L 34 140 L 34 139 L 34 138 L 34 137 L 34 136 L 34 135 L 34 134 L 34 133 L 34 132 L 34 131 L 34 130 L 34 129 L 34 128 L 34 127 L 34 126 L 34 125 L 34 124 L 34 123 L 33 122 L 32 122 L 31 121 L 30 121 L 29 121 L 28 120 L 27 120 L 26 120 L 25 120 L 24 120 L 23 120 L 22 120 L 21 120 Z" fill="#aad8bd" stroke="none"/>
  </g>
  <g id="elem_34" data-depth="2">
    <title>Element 34 (depth 2, color (189, 216, 170))</title>
    <desc>bbox: x=126,y=151,w=44,h=41; area=590.0</desc>
    <path d="M 151 151 L 150 152 L 149 152 L 148 152 L 147 153 L 146 153 L 145 154 L 144 154 L 143 155 L 142 155 L 141 156 L 140 157 L 139 157 L 138 158 L 137 159 L 136 160 L 135 161 L 134 162 L 133 163 L 132 164 L 131 165 L 131 166 L 130 167 L 129 168 L 129 169 L 128 170 L 128 171 L 127 172 L 127 173 L 126 174 L 127 174 L 128 173 L 129 172 L 130 172 L 131 171 L 132 171 L 133 171 L 134 171 L 135 171 L 136 171 L 137 172 L 138 173 L 139 174 L 139 175 L 139 176 L 139 177 L 139 178 L 139 179 L 139 180 L 139 181 L 139 182 L 139 183 L 139 184 L 139 185 L 139 186 L 139 187 L 138 188 L 139 189 L 139 190 L 139 191 L 140 190 L 141 189 L 142 188 L 142 187 L 143 186 L 143 185 L 144 184 L 145 183 L 145 182 L 146 181 L 147 180 L 147 179 L 148 178 L 149 177 L 149 176 L 150 175 L 151 174 L 152 173 L 153 172 L 153 171 L 154 170 L 155 169 L 156 168 L 157 167 L 158 166 L 159 165 L 160 164 L 161 163 L 162 162 L 163 162 L 164 161 L 165 160 L 166 159 L 167 159 L 168 159 L 169 159 L 169 158 L 168 158 L 167 159 L 166 159 L 165 160 L 164 160 L 163 161 L 162 162 L 161 163 L 160 163 L 159 164 L 158 165 L 157 166 L 156 167 L 155 168 L 154 168 L 153 167 L 153 166 L 154 165 L 155 164 L 156 163 L 157 162 L 158 161 L 159 160 L 160 160 L 161 159 L 162 158 L 162 157 L 162 156 L 162 155 L 161 154 L 160 153 L 159 152 L 158 152 L 157 151 L 156 151 L 155 151 L 154 151 L 153 151 L 152 151 Z" fill="#aad8bd" stroke="none"/>
  </g>
  <g id="elem_35" data-depth="2">
    <title>Element 35 (depth 2, color (189, 216, 170))</title>
    <desc>bbox: x=45,y=163,w=37,h=77; area=1508.0</desc>
    <path d="M 52 163 L 52 164 L 51 165 L 51 166 L 50 167 L 50 168 L 50 169 L 49 170 L 49 171 L 49 172 L 48 173 L 48 174 L 48 175 L 48 176 L 47 177 L 47 178 L 47 179 L 47 180 L 47 181 L 46 182 L 46 183 L 46 184 L 46 185 L 46 186 L 46 187 L 46 188 L 46 189 L 46 190 L 46 191 L 45 192 L 45 193 L 46 194 L 46 195 L 46 196 L 46 197 L 46 198 L 46 199 L 46 200 L 46 201 L 46 202 L 46 203 L 47 204 L 47 205 L 47 206 L 48 207 L 48 208 L 49 209 L 49 210 L 50 211 L 51 212 L 52 212 L 53 213 L 53 214 L 53 215 L 52 216 L 52 217 L 51 218 L 51 219 L 51 220 L 50 221 L 50 222 L 49 223 L 49 224 L 49 225 L 48 226 L 48 227 L 48 228 L 47 229 L 47 230 L 47 231 L 47 232 L 48 232 L 49 232 L 50 231 L 51 230 L 52 230 L 53 229 L 54 228 L 55 228 L 56 229 L 57 230 L 57 231 L 57 232 L 57 233 L 58 234 L 58 235 L 58 236 L 58 237 L 59 237 L 60 236 L 61 235 L 62 234 L 62 233 L 63 232 L 64 232 L 65 231 L 66 231 L 67 232 L 68 233 L 69 234 L 69 235 L 69 236 L 70 237 L 70 238 L 70 239 L 70 238 L 71 237 L 71 236 L 72 235 L 72 234 L 72 233 L 72 232 L 72 231 L 72 230 L 72 229 L 73 228 L 73 227 L 73 226 L 73 225 L 74 224 L 74 223 L 74 222 L 74 221 L 74 220 L 73 219 L 72 220 L 71 220 L 70 220 L 69 221 L 68 221 L 67 221 L 66 221 L 65 221 L 64 221 L 63 221 L 62 221 L 61 220 L 60 220 L 59 220 L 58 220 L 57 219 L 56 218 L 55 217 L 54 216 L 54 215 L 55 214 L 56 213 L 57 212 L 58 212 L 59 211 L 60 211 L 61 210 L 62 210 L 63 209 L 64 208 L 65 207 L 66 206 L 66 205 L 67 204 L 67 203 L 68 202 L 68 201 L 69 200 L 69 199 L 70 198 L 70 197 L 71 196 L 71 195 L 72 194 L 73 193 L 73 192 L 74 191 L 74 190 L 75 189 L 76 188 L 76 187 L 77 186 L 78 185 L 78 184 L 79 183 L 80 182 L 80 181 L 81 180 L 80 179 L 79 178 L 78 177 L 78 176 L 77 175 L 76 174 L 75 173 L 74 172 L 73 171 L 72 170 L 71 169 L 70 168 L 69 167 L 68 167 L 67 166 L 66 166 L 65 165 L 64 165 L 63 164 L 62 164 L 61 164 L 60 163 L 59 163 L 58 163 L 57 163 L 56 163 L 55 163 L 54 163 L 53 163 Z" fill="#aad8bd" stroke="none"/>
  </g>
  <g id="elem_36" data-depth="2">
    <title>Element 36 (depth 2, color (189, 216, 170))</title>
    <desc>bbox: x=168,y=163,w=13,h=7; area=23.0</desc>
    <path d="M 169 163 L 169 164 L 169 165 L 169 166 L 168 167 L 168 168 L 169 169 L 170 169 L 171 169 L 172 168 L 173 168 L 174 168 L 175 167 L 176 167 L 177 167 L 178 167 L 179 167 L 180 167 L 180 166 L 180 165 L 179 165 L 178 165 L 177 165 L 176 166 L 175 166 L 174 166 L 173 166 L 172 167 L 171 167 L 170 166 L 169 165 L 169 164 Z" fill="#aad8bd" stroke="none"/>
  </g>
  <g id="elem_37" data-depth="2">
    <title>Element 37 (depth 2, color (189, 216, 170))</title>
    <desc>bbox: x=178,y=171,w=10,h=7; area=15.5</desc>
    <path d="M 179 171 L 179 172 L 179 173 L 179 174 L 178 175 L 178 176 L 178 177 L 179 176 L 180 176 L 181 176 L 182 175 L 183 175 L 184 175 L 185 175 L 186 176 L 187 175 L 187 174 L 186 174 L 185 174 L 184 174 L 183 174 L 182 174 L 181 174 L 180 173 L 179 172 Z" fill="#aad8bd" stroke="none"/>
  </g>
  <g id="elem_41" data-depth="2">
    <title>Element 41 (depth 2, color (245, 245, 245))</title>
    <desc>bbox: x=41,y=124,w=10,h=42; area=219.0</desc>
    <path d="M 48 124 L 47 125 L 46 125 L 45 125 L 44 126 L 45 127 L 45 128 L 45 129 L 45 130 L 45 131 L 45 132 L 45 133 L 45 134 L 45 135 L 45 136 L 44 137 L 44 138 L 44 139 L 44 140 L 43 141 L 43 142 L 42 143 L 42 144 L 42 145 L 42 146 L 41 147 L 41 148 L 41 149 L 41 150 L 41 151 L 42 152 L 42 153 L 42 154 L 42 155 L 42 156 L 43 157 L 43 158 L 44 159 L 44 160 L 45 161 L 45 162 L 46 163 L 47 164 L 47 165 L 48 165 L 48 164 L 49 163 L 49 162 L 50 161 L 49 160 L 49 159 L 49 158 L 48 157 L 48 156 L 48 155 L 48 154 L 48 153 L 48 152 L 48 151 L 48 150 L 48 149 L 48 148 L 48 147 L 48 146 L 48 145 L 48 144 L 49 143 L 49 142 L 49 141 L 50 140 L 50 139 L 50 138 L 50 137 L 50 136 L 50 135 L 50 134 L 50 133 L 50 132 L 50 131 L 50 130 L 50 129 L 50 128 L 50 127 L 49 126 L 49 125 L 49 124 Z" fill="#f5f5f5" stroke="none"/>
  </g>
  <g id="elem_1" data-depth="3">
    <title>Element 1 (depth 3, color (0, 0, 0))</title>
    <desc>bbox: x=85,y=20,w=24,h=29; area=515.5</desc>
    <path d="M 104 20 L 104 21 L 104 22 L 103 23 L 102 23 L 101 22 L 100 22 L 99 21 L 98 21 L 97 21 L 96 21 L 95 21 L 94 22 L 93 22 L 92 23 L 91 23 L 90 24 L 89 25 L 88 26 L 88 27 L 87 28 L 87 29 L 86 30 L 86 31 L 86 32 L 86 33 L 85 34 L 85 35 L 85 36 L 85 37 L 85 38 L 85 39 L 85 40 L 85 41 L 85 42 L 85 43 L 85 44 L 85 45 L 85 46 L 86 47 L 87 48 L 88 48 L 89 48 L 90 48 L 91 48 L 92 48 L 93 48 L 94 48 L 95 48 L 96 48 L 97 48 L 98 47 L 99 47 L 100 47 L 101 47 L 102 46 L 103 46 L 104 45 L 105 44 L 106 43 L 106 42 L 106 41 L 107 40 L 107 39 L 107 38 L 107 37 L 107 36 L 107 35 L 107 34 L 107 33 L 107 32 L 107 31 L 106 30 L 106 29 L 106 28 L 105 27 L 106 26 L 107 26 L 108 25 L 108 24 L 107 23 L 107 22 L 106 21 L 106 20 L 105 20 Z" fill="#000000" stroke="none"/>
  </g>
  <g id="elem_2" data-depth="3">
    <title>Element 2 (depth 3, color (0, 0, 0))</title>
    <desc>bbox: x=134,y=26,w=17,h=28; area=319.5</desc>
    <path d="M 136 26 L 136 27 L 135 28 L 135 29 L 134 30 L 134 31 L 134 32 L 135 32 L 136 31 L 137 32 L 137 33 L 136 34 L 136 35 L 136 36 L 136 37 L 136 38 L 135 39 L 135 40 L 135 41 L 135 42 L 135 43 L 135 44 L 135 45 L 136 46 L 136 47 L 136 48 L 136 49 L 137 50 L 138 51 L 139 51 L 140 52 L 141 52 L 142 52 L 143 53 L 144 53 L 145 53 L 146 53 L 147 53 L 148 53 L 149 52 L 150 51 L 150 50 L 150 49 L 150 48 L 150 47 L 150 46 L 150 45 L 150 44 L 150 43 L 150 42 L 150 41 L 150 40 L 150 39 L 150 38 L 150 37 L 149 36 L 149 35 L 149 34 L 148 33 L 148 32 L 147 31 L 146 30 L 145 29 L 144 29 L 143 29 L 142 29 L 141 29 L 140 29 L 139 30 L 138 30 L 137 29 L 137 28 L 138 27 L 138 26 L 137 26 Z" fill="#000000" stroke="none"/>
  </g>
  <g id="elem_3" data-depth="3">
    <title>Element 3 (depth 3, color (0, 0, 0))</title>
    <desc>bbox: x=119,y=52,w=6,h=6; area=15.0</desc>
    <path d="M 119 52 L 119 53 L 119 54 L 120 55 L 121 56 L 121 57 L 122 57 L 123 57 L 124 56 L 123 55 L 123 54 L 122 53 L 121 52 L 120 52 Z" fill="#000000" stroke="none"/>
  </g>
  <g id="elem_4" data-depth="3">
    <title>Element 4 (depth 3, color (0, 0, 0))</title>
    <desc>bbox: x=130,y=54,w=5,h=5; area=9.5</desc>
    <path d="M 132 54 L 131 55 L 130 56 L 130 57 L 130 58 L 131 58 L 132 57 L 133 56 L 134 55 L 134 54 L 133 54 Z" fill="#000000" stroke="none"/>
  </g>
  <g id="elem_5" data-depth="3">
    <title>Element 5 (depth 3, color (0, 0, 0))</title>
    <desc>bbox: x=173,y=84,w=9,h=9; area=21.0</desc>
    <path d="M 173 84 L 173 85 L 174 85 L 175 85 L 176 85 L 177 85 L 178 85 L 179 86 L 178 87 L 177 88 L 177 89 L 176 90 L 175 91 L 175 92 L 176 92 L 177 91 L 178 90 L 178 89 L 179 88 L 180 87 L 181 86 L 181 85 L 181 84 L 180 84 L 179 84 L 178 84 L 177 84 L 176 84 L 175 84 L 174 84 Z" fill="#000000" stroke="none"/>
  </g>
  <g id="elem_6" data-depth="4">
    <title>Element 6 (depth 4, color (24, 28, 27))</title>
    <desc>bbox: x=89,y=23,w=17,h=24; area=152.5</desc>
    <path d="M 94 23 L 93 24 L 92 24 L 91 25 L 90 26 L 89 27 L 90 28 L 90 29 L 90 30 L 90 31 L 90 32 L 90 33 L 89 34 L 89 35 L 89 36 L 89 37 L 89 38 L 89 39 L 89 40 L 90 41 L 90 42 L 90 43 L 90 44 L 90 45 L 90 46 L 91 46 L 91 45 L 91 44 L 91 43 L 91 42 L 91 41 L 91 40 L 92 39 L 93 39 L 94 39 L 95 40 L 96 41 L 97 41 L 98 41 L 99 41 L 100 40 L 101 39 L 102 38 L 103 38 L 104 39 L 104 40 L 104 41 L 104 42 L 104 43 L 104 44 L 104 43 L 105 42 L 105 41 L 105 40 L 105 39 L 105 38 L 105 37 L 105 36 L 105 35 L 105 34 L 105 33 L 105 32 L 105 31 L 105 30 L 104 29 L 104 28 L 103 27 L 103 26 L 102 25 L 102 26 L 102 27 L 101 28 L 100 29 L 99 30 L 98 31 L 97 32 L 96 33 L 95 34 L 94 34 L 93 35 L 92 35 L 91 34 L 90 33 L 90 32 L 90 31 L 90 30 L 90 29 L 91 28 L 91 27 L 92 26 L 93 25 L 94 24 L 95 23 L 96 23 L 97 23 L 96 23 L 95 23 Z" fill="#1b1c18" stroke="none"/>
  </g>
  <g id="elem_7" data-depth="4">
    <title>Element 7 (depth 4, color (24, 28, 27))</title>
    <desc>bbox: x=137,y=33,w=12,h=20; area=94.0</desc>
    <path d="M 145 33 L 145 34 L 144 35 L 144 36 L 143 37 L 142 38 L 141 39 L 140 40 L 139 40 L 138 40 L 137 39 L 137 38 L 137 37 L 137 36 L 137 37 L 137 38 L 137 39 L 137 40 L 137 41 L 137 42 L 137 43 L 137 44 L 137 45 L 137 46 L 137 47 L 138 48 L 138 49 L 138 48 L 138 47 L 138 46 L 139 45 L 140 45 L 141 46 L 142 47 L 143 46 L 144 46 L 145 46 L 146 47 L 146 48 L 146 49 L 146 50 L 145 51 L 146 52 L 146 51 L 146 50 L 147 49 L 147 48 L 147 47 L 147 46 L 147 45 L 147 44 L 147 43 L 147 42 L 147 41 L 147 40 L 147 39 L 147 38 L 147 37 L 148 36 L 147 35 L 147 34 L 146 33 Z" fill="#1b1c18" stroke="none"/>
  </g>
  <g id="elem_8" data-depth="4">
    <title>Element 8 (depth 4, color (89, 89, 199))</title>
    <desc>bbox: x=93,y=40,w=10,h=7; area=28.0</desc>
    <path d="M 102 40 L 101 41 L 100 42 L 99 43 L 98 43 L 97 43 L 96 43 L 95 43 L 94 42 L 93 41 L 93 42 L 93 43 L 93 44 L 93 45 L 94 46 L 95 46 L 96 46 L 97 46 L 98 45 L 99 45 L 100 45 L 101 45 L 102 44 L 102 43 L 102 42 L 102 41 Z" fill="#c75959" stroke="none"/>
  </g>
  <g id="elem_9" data-depth="4">
    <title>Element 9 (depth 4, color (89, 89, 199))</title>
    <desc>bbox: x=140,y=48,w=5,h=3; area=5.5</desc>
    <path d="M 140 48 L 140 49 L 141 50 L 142 50 L 143 50 L 144 50 L 144 49 L 144 48 L 143 48 L 142 49 L 141 49 Z" fill="#c75959" stroke="none"/>
  </g>
  <g id="elem_39" data-depth="4">
    <title>Element 39 (depth 4, color (245, 245, 245))</title>
    <desc>bbox: x=92,y=25,w=9,h=8; area=31.0</desc>
    <path d="M 96 25 L 95 26 L 94 26 L 94 27 L 93 28 L 93 29 L 93 30 L 92 31 L 93 32 L 94 32 L 95 31 L 96 31 L 97 30 L 98 29 L 99 28 L 99 27 L 100 26 L 99 25 L 98 25 L 97 25 Z" fill="#f5f5f5" stroke="none"/>
  </g>
  <g id="elem_40" data-depth="4">
    <title>Element 40 (depth 4, color (245, 245, 245))</title>
    <desc>bbox: x=139,y=32,w=5,h=6; area=10.5</desc>
    <path d="M 142 32 L 141 33 L 140 34 L 139 35 L 139 36 L 139 37 L 140 37 L 141 36 L 142 35 L 143 34 L 143 33 Z" fill="#f5f5f5" stroke="none"/>
  </g></svg>
